<?xml version="1.0" standalone="no"?>
<!DOCTYPE svg PUBLIC "-//W3C//DTD SVG 20010904//EN"
 "http://www.w3.org/TR/2001/REC-SVG-20010904/DTD/svg10.dtd">
<svg version="1.0" xmlns="http://www.w3.org/2000/svg"
 width="1200.000000pt" height="1200.000000pt" viewBox="0 0 1200.000000 1200.000000"
 preserveAspectRatio="xMidYMid meet">
<metadata>
Created by potrace 1.11, written by Peter Selinger 2001-2013
</metadata>
<g transform="translate(0.000000,1200.000000) scale(0.100000,-0.100000)"
fill="#000000" stroke="none">
<path d="M5938 11355 c-2 -1 -79 -6 -172 -10 -93 -4 -176 -8 -185 -10 -9 -1
-61 -6 -116 -9 -55 -4 -107 -9 -115 -11 -8 -2 -51 -7 -95 -10 -44 -4 -82 -8
-85 -10 -3 -1 -32 -6 -65 -9 -83 -9 -200 -25 -260 -36 -27 -5 -66 -11 -85 -14
-19 -3 -80 -14 -135 -25 -55 -11 -113 -23 -130 -26 -16 -3 -41 -8 -55 -11 -14
-3 -63 -14 -110 -25 -47 -11 -93 -22 -102 -24 -100 -21 -385 -107 -573 -172
-325 -113 -703 -287 -964 -445 -34 -21 -65 -38 -67 -38 -2 0 -66 -41 -141 -92
-155 -104 -305 -215 -438 -327 -106 -89 -399 -378 -476 -471 -30 -35 -59 -70
-66 -78 -35 -37 -180 -231 -245 -327 -113 -166 -200 -314 -309 -525 -22 -43
-99 -210 -99 -215 0 -2 -13 -32 -28 -67 -92 -204 -201 -539 -268 -822 -23 -95
-74 -346 -79 -390 -3 -23 -7 -48 -10 -56 -2 -8 -9 -55 -15 -105 -6 -49 -13
-101 -15 -115 -4 -24 -8 -65 -21 -190 -3 -30 -7 -71 -9 -90 -27 -229 -27
-1026 0 -1310 2 -25 6 -74 9 -110 13 -153 44 -410 62 -510 2 -14 9 -54 15 -90
8 -51 55 -285 74 -372 42 -190 149 -535 229 -739 182 -465 446 -903 751 -1245
113 -127 302 -310 415 -403 58 -47 107 -88 110 -91 27 -32 363 -253 535 -353
75 -43 331 -169 444 -217 117 -50 398 -157 432 -165 9 -2 54 -16 100 -30 46
-15 98 -31 114 -35 17 -5 62 -17 100 -29 39 -11 158 -40 265 -65 206 -47 220
-50 315 -66 33 -5 69 -12 80 -14 65 -12 99 -17 133 -22 20 -2 62 -8 92 -14 30
-5 98 -14 150 -20 52 -6 109 -13 125 -15 28 -4 99 -11 190 -20 22 -2 83 -7
135 -10 52 -4 106 -9 120 -11 117 -18 1044 -26 1360 -11 279 13 304 14 520 33
36 3 81 7 100 9 19 2 62 7 95 10 103 10 208 23 325 40 14 2 45 7 70 10 78 11
380 65 474 85 50 11 102 21 116 24 73 12 364 91 530 143 1145 357 1928 985
2331 1868 82 181 178 479 215 670 2 11 6 30 9 42 3 13 7 31 9 41 2 10 8 45 12
77 4 33 9 62 9 65 2 5 14 96 20 145 10 82 19 256 19 395 l1 155 -1602 0
c-1089 0 -1603 -3 -1604 -10 -4 -51 -10 -102 -19 -167 -87 -613 -426 -1050
-990 -1273 -52 -20 -104 -41 -115 -46 -23 -10 -260 -75 -301 -83 -16 -2 -66
-12 -111 -20 -45 -8 -108 -18 -140 -22 -32 -3 -60 -8 -63 -9 -32 -19 -716 -28
-880 -12 -113 11 -223 26 -305 42 -108 20 -150 30 -230 51 -368 96 -686 271
-925 506 -92 90 -131 133 -176 194 -16 22 -32 41 -35 44 -22 19 -135 203 -194
316 -89 171 -197 469 -241 664 -4 19 -9 40 -10 45 -10 38 -63 310 -69 355 -4
30 -8 62 -9 70 -2 8 -6 44 -10 80 -5 36 -10 79 -12 95 -4 32 -15 156 -19 220
-21 285 -22 923 -1 1030 2 11 7 59 11 107 3 49 8 98 10 110 3 13 7 43 10 68 6
46 12 86 20 130 3 14 7 41 10 60 52 318 184 711 328 980 294 548 766 928 1377
1108 58 17 119 34 137 37 18 3 44 10 58 15 14 5 29 9 33 8 4 -1 21 1 37 5 17
4 46 9 65 12 19 3 60 10 90 15 236 39 739 47 988 15 15 -2 54 -7 87 -11 33 -3
63 -8 66 -10 3 -1 28 -6 55 -10 27 -3 52 -8 55 -10 4 -2 23 -6 44 -10 20 -3
83 -19 140 -34 646 -182 1040 -600 1170 -1241 14 -70 25 -139 25 -155 0 -63
-132 -58 1604 -59 1049 0 1587 3 1589 10 7 22 -8 391 -18 443 -1 10 -6 44 -9
77 -4 33 -9 74 -12 90 -3 17 -7 41 -9 55 -26 167 -103 456 -158 590 -5 14 -11
30 -13 35 -15 52 -150 334 -197 410 -120 194 -210 321 -320 450 -85 99 -309
319 -397 390 -41 33 -77 62 -80 65 -25 27 -380 270 -394 270 -3 0 -29 15 -58
33 -72 46 -261 143 -388 201 -155 71 -160 73 -262 111 -51 20 -102 40 -113 45
-30 14 -349 118 -435 141 -232 64 -595 146 -728 165 -20 2 -59 9 -87 14 -27 5
-86 14 -130 20 -109 15 -146 20 -175 25 -14 2 -77 9 -140 15 -63 6 -134 13
-157 15 -52 7 -117 12 -253 21 -58 4 -130 8 -160 10 -71 5 -927 13 -932 9z"/>
</g>
</svg>
