<?xml version="1.0" standalone="no"?>
<!DOCTYPE svg PUBLIC "-//W3C//DTD SVG 20010904//EN"
 "http://www.w3.org/TR/2001/REC-SVG-20010904/DTD/svg10.dtd">
<svg version="1.0" xmlns="http://www.w3.org/2000/svg"
 width="1200.000000pt" height="1200.000000pt" viewBox="0 0 1200.000000 1200.000000"
 preserveAspectRatio="xMidYMid meet">
<metadata>
Created by potrace 1.11, written by Peter Selinger 2001-2013
</metadata>
<g transform="translate(0.000000,1200.000000) scale(0.100000,-0.100000)"
fill="#000000" stroke="none">
<path d="M6057 9214 c-1 -1 -72 -4 -157 -8 -85 -3 -171 -8 -190 -10 -19 -2
-66 -7 -105 -10 -38 -4 -86 -8 -105 -11 -163 -21 -169 -22 -320 -50 -130 -25
-137 -26 -210 -44 -25 -7 -56 -14 -70 -17 -157 -33 -455 -142 -670 -246 -564
-273 -990 -691 -1261 -1238 -56 -114 -152 -347 -165 -400 -1 -8 -17 -61 -33
-118 -29 -97 -80 -318 -86 -372 -3 -30 -14 -106 -20 -140 -2 -14 -6 -50 -9
-80 -3 -30 -9 -86 -13 -125 -15 -148 -7 -759 12 -890 2 -16 7 -59 11 -95 3
-36 8 -74 10 -85 2 -11 6 -38 9 -60 25 -191 115 -538 187 -720 242 -606 617
-1021 1188 -1317 228 -118 519 -219 815 -284 142 -30 136 -29 200 -39 28 -5
57 -9 65 -10 59 -10 174 -26 220 -31 30 -3 71 -7 90 -9 45 -5 137 -12 275 -21
208 -14 786 -7 955 11 19 2 67 6 105 9 104 8 378 43 465 60 14 3 52 10 85 15
33 6 69 13 80 16 11 2 51 12 90 20 164 37 443 126 580 185 47 20 226 108 284
139 68 36 235 151 311 215 215 178 371 374 485 611 74 154 137 341 160 475 3
19 8 42 10 50 12 46 26 196 32 352 l5 126 -962 0 c-706 0 -963 -3 -965 -12 -3
-6 -7 -33 -10 -61 -24 -238 -109 -429 -258 -577 -61 -61 -170 -141 -247 -180
-103 -54 -312 -118 -435 -134 -27 -3 -52 -8 -55 -9 -13 -8 -227 -19 -350 -18
-148 0 -262 8 -355 24 -33 5 -69 12 -80 14 -172 29 -408 129 -540 227 -86 65
-178 157 -239 240 -25 35 -49 68 -54 73 -24 33 -73 129 -117 230 -20 46 -64
172 -76 219 -6 22 -14 57 -19 76 -15 60 -40 184 -44 215 -6 52 -17 139 -21
170 -25 181 -25 753 0 858 3 12 7 40 9 62 7 64 23 155 41 225 9 36 18 75 21
87 15 71 107 311 137 356 9 15 17 30 17 35 0 12 121 191 155 231 117 134 245
237 395 318 109 58 330 134 435 148 22 3 54 9 70 12 137 29 526 33 660 7 11
-2 36 -6 55 -9 19 -3 46 -7 60 -11 14 -3 41 -9 60 -13 19 -4 76 -22 127 -40
231 -80 405 -222 515 -421 31 -57 83 -192 93 -245 5 -22 9 -42 10 -45 4 -12
17 -110 16 -117 -1 -5 11 -10 26 -13 22 -4 1779 -5 1869 -1 21 1 21 5 18 117
-2 64 -6 132 -9 152 -3 21 -8 55 -11 77 -9 75 -25 160 -45 230 -11 39 -21 75
-22 80 -1 6 -6 16 -10 23 -5 6 -6 12 -2 12 3 0 -1 13 -10 30 -8 16 -15 32 -14
35 4 14 -90 209 -140 290 -91 150 -146 220 -276 351 -132 134 -263 235 -435
337 -112 67 -307 162 -400 196 -19 7 -44 17 -55 21 -42 18 -172 62 -240 81
-38 11 -77 22 -85 25 -49 14 -304 71 -355 79 -16 3 -39 6 -50 9 -11 2 -40 7
-65 11 -25 3 -58 9 -75 12 -16 3 -42 6 -56 8 -40 4 -140 15 -179 21 -37 4
-131 11 -295 20 -93 5 -444 11 -448 8z"/>
</g>
</svg>
