<svg id="Layer_1" data-name="Layer 1" xmlns="http://www.w3.org/2000/svg" viewBox="0 0 1249 83"><title>Christelle</title><path d="M61.62,54.13c-.86,10.17-9.83,12.3-17.21,12.3-14.06,0-20.33-7.77-20.33-25.18,0-11.14,3.7-24.43,21.3-24.43,9.58,0,15,3.9,16,11.58l.07.49H86v-.56C86,10.71,70.82.19,45.38.19,16.34.19-.31,15.36-.31,41.79c0,27.85,14.63,41.39,44.73,41.39,27.5,0,42-10,42-29v-.56H61.67Z"/><path d="M138.45,23.89a28.11,28.11,0,0,0-22.38,10V2.24H94.26V81.13h21.81V56.77c0-11.41,5.89-18.5,15.38-18.5,10.39,0,12.58,8,12.58,14.63V81.13h21.81V49.76C165.83,33.08,156.1,23.89,138.45,23.89Z"/><path d="M219.78,23.89c-12.47,0-18.43,6.46-21.17,11.44l-.37-9.4H177l.05.61c.36,4,.43,8.24.43,11V81.13h21.8V59.24c0-10.72,7-17.64,17.75-17.64a35.07,35.07,0,0,1,5.42.42l.64.09V24l-.51,0C221.41,23.89,220.54,23.89,219.78,23.89Z"/><rect x="227.4" y="2.24" width="23.74" height="16.2"/><rect x="228.37" y="25.94" width="21.81" height="55.19"/><path d="M304.65,47.81l-13.57-2.37c-5-.86-9.23-1.84-9.23-5,0-3,4.68-4.18,7.62-4.18,6.84,0,8.56,2.56,9,6.4l.06.49h21.77l0-.59c-.63-12.54-10.64-18.63-30.61-18.63-9.11,0-30.29,1.82-30.29,18.66,0,8.2,5.74,13.39,17,15.41l14.11,2.59c4.7.84,8.58,1.82,8.58,5.26s-2.95,5-9.56,5c-6.11,0-9.11-2.3-9.45-7.23l0-.52H257.85l0,.6c.63,9.07,4.71,19.48,30.83,19.48,21.81,0,32.88-6.35,32.88-18.87C321.59,56.16,318.71,50.23,304.65,47.81Z"/><path d="M357.25,7.17l-21.8,8V25.94H323V39.88h12.49v22.7c0,14.09,7.18,19.84,24.8,19.84a79.49,79.49,0,0,0,13.56-1.3l.47-.08V67.22l-.64.09a58.09,58.09,0,0,1-7.47.64c-8.32,0-8.92-4.14-8.92-11V39.88h17V25.94h-17Z"/><path d="M413.35,23.89c-26.3,0-35.68,15.76-35.68,30.51,0,18.83,12.34,28.78,35.68,28.78,13.22,0,31.19-2,34.59-19l.14-.67H425.22l-.13.39c-1.13,3.51-3,6.93-11.74,6.93-8,0-12.58-4.19-13.19-12.12h49v-.56C449.13,35.1,437.42,23.89,413.35,23.89Zm-12.8,22.73c.92-5,3.93-10.61,12.8-10.61,8,0,12.28,3.57,12.66,10.61Z"/><rect x="456.95" y="2.24" width="21.81" height="78.89"/><rect x="490.78" y="2.24" width="21.8" height="78.89"/><path d="M556.29,23.89c-26.3,0-35.68,15.76-35.68,30.51,0,18.83,12.34,28.78,35.68,28.78,13.22,0,31.19-2,34.59-19l.14-.67H568.16l-.13.39c-1.13,3.51-3,6.93-11.74,6.93-8,0-12.58-4.19-13.19-12.12h49v-.56C592.07,35.1,580.37,23.89,556.29,23.89Zm-12.8,22.73c.92-5,3.93-10.61,12.8-10.61,8,0,12.28,3.57,12.66,10.61Z"/><path d="M709.27,71.63V2.24h-21.8V33c-4.08-4.11-9.88-9.09-22.38-9.09-18.47,0-31.37,12-31.37,29.1,0,18.34,12.31,30.18,31.37,30.18,12.23,0,18.79-5,23.1-9.81l.39,7.76h21.2l-.07-.62A77.55,77.55,0,0,1,709.27,71.63Zm-21.7-17.77c0,9.18-6.37,15.59-15.49,15.59-9.56,0-15.27-6.15-15.27-16.46,0-9,6.42-15.59,15.27-15.59C681.93,37.4,687.57,43.4,687.57,53.86Z"/><path d="M753,23.89c-26.3,0-35.68,15.76-35.68,30.51,0,18.83,12.34,28.78,35.68,28.78,13.22,0,31.19-2,34.59-19l.14-.67H764.85l-.13.39c-1.14,3.51-3,6.93-11.75,6.93-8,0-12.58-4.19-13.19-12.12h49v-.56C788.77,35.1,777.06,23.89,753,23.89Zm-12.8,22.73c.92-5,3.93-10.61,12.8-10.61,8,0,12.28,3.57,12.66,10.61Z"/><path d="M893.21,54.13c-.86,10.17-9.83,12.3-17.21,12.3-14.06,0-20.34-7.77-20.34-25.18,0-11.14,3.7-24.43,21.3-24.43,9.58,0,15,3.9,16,11.58l.07.49H917.6v-.56C917.6,10.71,902.41.19,877,.19c-29,0-45.69,15.16-45.69,41.6,0,27.85,14.63,41.39,44.72,41.39,27.5,0,42-10,42-29v-.56H893.25Z"/><path d="M990.74,68.51V47.83c0-21.09-16.51-23.94-32.66-23.94-11.71,0-31.53,2.4-32.77,18.51l0,.61h22.48l0-.55c.12-4.08,3.68-6.24,10.32-6.24,7.71,0,10.85,2.58,10.85,8.92v.95H958.4c-9.12,0-36.86,0-36.86,19,0,11.68,8.77,18.12,24.69,18.12,10.44,0,18.47-3.35,23.34-9.71l.47,7.66h21.16l0-.6C991,77.32,990.74,71.72,990.74,68.51Zm-21.81-11C968.56,69.28,956.69,70.2,953,70.2c-5.32,0-8.38-1.8-8.38-4.93,0-3.6,1.85-7.73,16.24-7.73Z"/><path d="M1045.21,47.81l-13.57-2.37c-5-.86-9.22-1.84-9.22-5,0-3,4.68-4.18,7.62-4.18,6.84,0,8.56,2.56,9,6.4l.06.49h21.77l0-.59c-.63-12.54-10.64-18.63-30.61-18.63-9.11,0-30.29,1.82-30.29,18.66,0,8.2,5.74,13.39,17,15.41l14.11,2.59c4.7.84,8.58,1.82,8.58,5.26s-2.95,5-9.56,5c-6.11,0-9.12-2.3-9.46-7.23l0-.52H998.41l0,.6c.63,9.07,4.71,19.48,30.83,19.48,21.81,0,32.88-6.35,32.88-18.87C1062.16,56.16,1059.27,50.23,1045.21,47.81Z"/><path d="M1097.81,7.17l-21.8,8V25.94h-12.49V39.88H1076v22.7c0,14.09,7.18,19.84,24.8,19.84a79.41,79.41,0,0,0,13.56-1.3l.47-.08V67.22l-.64.09a58,58,0,0,1-7.47.64c-8.31,0-8.91-4.14-8.91-11V39.88h17V25.94h-17Z"/><path d="M1164.47,23.89c-12.47,0-18.43,6.46-21.17,11.44l-.36-9.4h-21.19l.05.61c.36,4,.43,8.22.43,11V81.13H1144V59.24c0-10.72,7-17.64,17.75-17.64a35,35,0,0,1,5.41.42l.64.09V24l-.51,0C1166.11,23.89,1165.24,23.89,1164.47,23.89Z"/><path d="M1208.85,23.89c-31.39,0-39.77,18.63-39.77,29.64s5.17,29.65,39.77,29.65c13.91,0,24.48-3.33,31.42-9.89a27,27,0,0,0,8.35-19.76C1248.61,44.62,1244.74,23.89,1208.85,23.89Zm16.67,29.64c0,10.28-6.39,16.67-16.67,16.67-11.06,0-16.67-5.61-16.67-16.67,0-12.29,8.61-16.67,16.67-16.67C1219.6,36.86,1225.52,42.78,1225.52,53.53Z"/></svg>